# xmcd
#
# Track frame offsets:
#	183
#	12683
#	23135
#	34750
#	45888
#	56763
#	76820
#	89623
#	105623
#	118545
#	132745
#	142570
#	155170
#	167148
#	180343
#	192453
#	204068
#	219260
#	229360
#	243243
#
# Disc length: 3455
#
# Revision: 2
# Processed by: cddbd v1.5.1PL0 Copyright (c) Steve Scherf et al.
# Submitted via: CDValet v3.31 - Copyright (c) 1997 Greg Leichner
# Normalized: r1:DSETVAR1,TDELIM( - )
#
DISCID=090d7d14
DTITLE=Various Artist - 20 Blues Classics - Part 3
DYEAR=1900
DGENRE=
TTITLE0=John Lee Hooker - Hobo Blues
TTITLE1=Elmore James - Done Somebody Wrong
TTITLE2=Howlin' Wolf - Howlin' For My Baby
TTITLE3=B.B. King - Catfish Blues
TTITLE4=Little Walter - Blue Midnight
TTITLE5=John Mayall - Road Show
TTITLE6=Muddy Waters - Appealing Blues (Hello Little Girl)
TTITLE7=B.B. King - Long Nights
TTITLE8=Elmore James - Held My Baby Last Night
TTITLE9=Little Walter - Sad Hours
TTITLE10=John Lee Hooker - Dusty Road
TTITLE11=Muddy Waters - Trainfare Blues
TTITLE12=John Mayall - Lost And Gone
TTITLE13=Little Walter - Roller Coaster
TTITLE14=John Lee Hooker - I'm In The Mood
TTITLE15=Elmore James - Fine Little Mama
TTITLE16=Howlin' Wolf - Goin' Down Slow
TTITLE17=John Lee Hooker - Want Ad Blues
TTITLE18=Elmore James - It Hurts Me Too
TTITLE19=Eric Burdon and The Animals - Dimples
EXTD=
EXTT0=
EXTT1=
EXTT2=
EXTT3=
EXTT4=
EXTT5=
EXTT6=
EXTT7=
EXTT8=
EXTT9=
EXTT10=
EXTT11=
EXTT12=
EXTT13=
EXTT14=
EXTT15=
EXTT16=
EXTT17=
EXTT18=
EXTT19=
PLAYORDER=
